<?xml version="1.0" standalone="no"?>
<!DOCTYPE svg PUBLIC "-//W3C//DTD SVG 20010904//EN"
 "http://www.w3.org/TR/2001/REC-SVG-20010904/DTD/svg10.dtd">
<svg version="1.0" xmlns="http://www.w3.org/2000/svg"
 width="561.000000pt" height="561.000000pt" viewBox="0 0 561.000000 561.000000"
 preserveAspectRatio="xMidYMid meet">
<metadata>
Created by potrace 1.14, written by Peter Selinger 2001-2017
</metadata>
<g transform="translate(0.000000,561.000000) scale(0.100000,-0.100000)"
fill="#000000" stroke="none">
<path d="M1808 4975 c-2 -2 -46 -6 -98 -10 -52 -3 -108 -8 -125 -10 -86 -10
-140 -18 -164 -24 l-26 -7 -2 -1332 -1 -1332 174 0 174 0 0 586 0 586 218 -5
c119 -2 226 -7 237 -10 11 -4 36 -10 56 -15 56 -14 122 -50 166 -91 35 -32 43
-49 77 -166 21 -71 67 -242 102 -380 34 -137 70 -269 78 -293 61 -172 166
-304 290 -368 l74 -38 -56 -26 c-92 -42 -134 -66 -194 -114 -250 -199 -326
-569 -181 -881 66 -144 214 -269 392 -331 142 -49 279 -67 511 -68 236 0 374
10 570 40 52 8 101 16 108 16 13 1 12 317 -3 1833 -2 209 -5 482 -6 606 l-2
226 -173 -1 c-168 0 -174 -1 -175 -21 -1 -25 2 -385 5 -817 l3 -328 -56 -1
c-408 -10 -501 8 -625 119 -52 46 -72 110 -201 647 -78 325 -180 482 -370 570
-39 18 -40 18 -15 28 269 109 436 302 478 552 8 51 8 218 0 270 -26 160 -111
304 -239 408 -106 85 -300 155 -489 176 -75 8 -505 13 -512 6z m457 -278 c11
-3 43 -11 70 -17 200 -48 336 -190 366 -380 36 -234 -61 -428 -267 -530 -119
-59 -192 -71 -449 -74 -121 -2 -226 -1 -232 2 -10 3 -13 111 -13 492 l0 488
28 7 c15 4 50 9 77 12 28 3 52 7 53 8 6 6 346 -2 367 -8z m1576 -2854 c0 -48
2 -269 4 -490 3 -444 9 -405 -60 -417 -156 -27 -389 -26 -505 3 -260 65 -389
217 -395 465 -5 226 126 409 345 482 94 31 178 40 398 42 l212 3 1 -88z"/>
</g>
</svg>
